<svg xmlns="http://www.w3.org/2000/svg" xmlns:xlink="http://www.w3.org/1999/xlink" version="1.1" xml:space="preserve" width="650" height="200" viewBox="0 0 650 200" preserveAspectRatio="xMidYMid meet"><g transform="translate(0,150)" class="axis" fill="none" font-size="10" font-family="sans-serif" text-anchor="middle"><path class="domain" stroke="currentColor" d="M20.5,6V0.5H610.5V6"></path><g class="tick" opacity="1" transform="translate(52.10714285714285,0)"><line stroke="currentColor" y2="6"></line><text fill="currentColor" y="9" dy="0.71em">Feb 02</text></g><g class="tick" opacity="1" transform="translate(125.85714285714286,0)"><line stroke="currentColor" y2="6"></line><text fill="currentColor" y="9" dy="0.71em">Feb 09</text></g><g class="tick" opacity="1" transform="translate(199.60714285714283,0)"><line stroke="currentColor" y2="6"></line><text fill="currentColor" y="9" dy="0.71em">Feb 16</text></g><g class="tick" opacity="1" transform="translate(273.35714285714283,0)"><line stroke="currentColor" y2="6"></line><text fill="currentColor" y="9" dy="0.71em">Feb 23</text></g><g class="tick" opacity="1" transform="translate(347.1071428571429,0)"><line stroke="currentColor" y2="6"></line><text fill="currentColor" y="9" dy="0.71em">March</text></g><g class="tick" opacity="1" transform="translate(420.8571428571429,0)"><line stroke="currentColor" y2="6"></line><text fill="currentColor" y="9" dy="0.71em">Mar 08</text></g><g class="tick" opacity="1" transform="translate(494.6071428571429,0)"><line stroke="currentColor" y2="6"></line><text fill="currentColor" y="9" dy="0.71em">Mar 15</text></g><g class="tick" opacity="1" transform="translate(568.3571428571429,0)"><line stroke="currentColor" y2="6"></line><text fill="currentColor" y="9" dy="0.71em">Mar 22</text></g></g><g transform="translate(610, 0)" class="axis" fill="none" font-size="10" font-family="sans-serif" text-anchor="start"><path class="domain" stroke="currentColor" d="M6,150.5H0.5V0.5H6"></path><g class="tick" opacity="1" transform="translate(0,136.86363636363635)"><line stroke="currentColor" x2="6"></line><text fill="currentColor" x="11" dy="0.32em">0</text></g><g class="tick" opacity="1" transform="translate(0,95.35263594852637)"><line stroke="currentColor" x2="6"></line><text fill="currentColor" x="11" dy="0.32em">200</text></g><g class="tick" opacity="1" transform="translate(0,53.84163553341637)"><line stroke="currentColor" x2="6"></line><text fill="currentColor" x="11" dy="0.32em">400</text></g><g class="tick" opacity="1" transform="translate(0,12.330635118306343)"><line stroke="currentColor" x2="6"></line><text fill="currentColor" x="11" dy="0.32em">600</text></g></g><g><circle fill="#ff073a" stroke="#ff073a" r="5" cx="599.4642857142857" cy="0"></circle></g><path fill="none" stroke="#ff073a99" stroke-width="5" cursor="pointer" d="M20,136.1560813615608C20,136.1560813615608,27.023809523809522,136.1560813615608,30.535714285714285,136.1560813615608C34.047619047619044,136.1560813615608,37.55952380952381,136.19067386190673,41.07142857142857,136.1560813615608C44.58333333333333,136.12148886121489,48.09523809523809,136.01771136017712,51.60714285714285,135.94852635948527C55.119047619047606,135.87934135879343,58.63095238095237,135.77556385775563,62.14285714285714,135.7409713574097C65.6547619047619,135.70637885706378,69.16666666666667,135.7409713574097,72.67857142857143,135.7409713574097C76.19047619047619,135.7409713574097,79.70238095238095,135.7409713574097,83.21428571428571,135.7409713574097C86.72619047619047,135.7409713574097,90.23809523809524,135.7409713574097,93.75,135.7409713574097C97.26190476190476,135.7409713574097,100.77380952380952,135.7409713574097,104.28571428571428,135.7409713574097C107.79761904761904,135.7409713574097,111.30952380952382,135.7409713574097,114.82142857142858,135.7409713574097C118.33333333333334,135.7409713574097,121.8452380952381,135.7409713574097,125.35714285714286,135.7409713574097C128.86904761904762,135.7409713574097,132.38095238095238,135.7409713574097,135.89285714285714,135.7409713574097C139.4047619047619,135.7409713574097,142.91666666666666,135.7409713574097,146.42857142857142,135.7409713574097C149.94047619047618,135.7409713574097,153.45238095238096,135.7409713574097,156.96428571428572,135.7409713574097C160.47619047619048,135.7409713574097,163.98809523809524,135.7409713574097,167.5,135.7409713574097C171.01190476190476,135.7409713574097,174.52380952380952,135.7409713574097,178.03571428571428,135.7409713574097C181.54761904761904,135.7409713574097,185.0595238095238,135.7409713574097,188.57142857142856,135.7409713574097C192.08333333333331,135.7409713574097,195.59523809523807,135.7409713574097,199.10714285714283,135.7409713574097C202.6190476190476,135.7409713574097,206.1309523809524,135.7409713574097,209.64285714285717,135.7409713574097C213.15476190476193,135.7409713574097,216.66666666666669,135.7409713574097,220.17857142857144,135.7409713574097C223.6904761904762,135.7409713574097,227.20238095238096,135.7409713574097,230.71428571428572,135.7409713574097C234.22619047619048,135.7409713574097,237.73809523809524,135.7409713574097,241.25,135.7409713574097C244.76190476190476,135.7409713574097,248.27380952380952,135.7409713574097,251.78571428571428,135.7409713574097C255.29761904761904,135.7409713574097,258.8095238095238,135.7409713574097,262.32142857142856,135.7409713574097C265.8333333333333,135.7409713574097,269.3452380952381,135.7409713574097,272.85714285714283,135.7409713574097C276.3690476190476,135.7409713574097,279.8809523809524,135.7409713574097,283.39285714285717,135.7409713574097C286.9047619047619,135.7409713574097,290.4166666666667,135.7409713574097,293.92857142857144,135.7409713574097C297.4404761904762,135.7409713574097,300.95238095238096,135.7409713574097,304.4642857142857,135.7409713574097C307.9761904761905,135.7409713574097,311.48809523809524,135.7409713574097,315,135.7409713574097C318.51190476190476,135.7409713574097,322.0238095238096,135.7409713574097,325.53571428571433,135.7409713574097C329.0476190476191,135.7409713574097,332.5595238095238,135.7409713574097,336.07142857142856,135.7409713574097C339.5833333333333,135.7409713574097,343.09523809523813,135.81015635810155,346.6071428571429,135.7409713574097C350.11904761904765,135.67178635671786,353.63095238095235,135.4296388542964,357.1428571428571,135.32586135325863C360.65476190476187,135.22208385222086,364.1666666666667,135.91393385913935,367.67857142857144,135.11830635118307C371.1904761904762,134.32267884322678,374.7023809523809,131.38231631382317,378.21428571428567,130.55209630552096C381.7261904761904,129.72187629721876,385.23809523809524,130.24076380240763,388.75,130.13698630136986C392.26190476190476,130.0332088003321,395.7738095238096,130.067801300678,399.28571428571433,129.92943129929432C402.7976190476191,129.79106129791063,406.3095238095238,129.58350629583506,409.82142857142856,129.30676629306765C413.3333333333333,129.03002629030024,416.84523809523813,128.75328628753286,420.3571428571429,128.2689912826899C423.86904761904765,127.78469627784696,427.38095238095235,127.23121627231217,430.8928571428571,126.40099626400996C434.40476190476187,125.57077625570776,437.9166666666667,124.04870624048706,441.42857142857144,123.28767123287672C444.9404761904762,122.52663622526637,448.4523809523809,122.49204372492044,451.96428571428567,121.83478621834786C455.4761904761904,121.17752871177528,458.98809523809524,120.07056870070569,462.5,119.34412619344127C466.01190476190476,118.61768368617685,469.5238095238096,118.34094368340944,473.03571428571433,117.4761311747613C476.5476190476191,116.61131866611318,480.0595238095238,114.91628614916287,483.57142857142856,114.15525114155253C487.0833333333333,113.39421613394218,490.59523809523813,113.60177113601772,494.1071428571429,112.90992112909922C497.61904761904765,112.21807112218072,501.13095238095235,111.14570361145704,504.6428571428571,110.00415110004151C508.15476190476187,108.86259858862599,511.6666666666667,107.58267607582678,515.1785714285714,106.06060606060608C518.6904761904761,104.53853604538537,522.202380952381,102.70513352705134,525.7142857142857,100.87173100871732C529.2261904761904,99.0383284903833,532.7380952380952,98.0697384806974,536.25,95.06019095060192C539.7619047619048,92.05064342050645,543.2738095238096,87.48443337484434,546.7857142857143,82.81444582814447C550.297619047619,78.1444582814446,553.8095238095239,72.0561782205618,557.3214285714286,67.04026567040268C560.8333333333333,62.024353120243546,564.3452380952381,58.634288086342885,567.8571428571429,52.718970527189704C571.3690476190477,46.80365296803652,574.8809523809523,37.35990037359901,578.3928571428571,31.54836031548361C581.9047619047619,25.73682025736821,585.4166666666667,23.107790231077907,588.9285714285714,17.849730178497307C592.4404761904761,12.591670125916705,599.4642857142857,0,599.4642857142857,0"></path><circle fill="#ff073a" stroke="#ff073a" r="3" cursor="pointer" cx="20" cy="136.1560813615608"></circle><circle fill="#ff073a" stroke="#ff073a" r="3" cursor="pointer" cx="30.535714285714285" cy="136.1560813615608"></circle><circle fill="#ff073a" stroke="#ff073a" r="3" cursor="pointer" cx="41.07142857142857" cy="136.1560813615608"></circle><circle fill="#ff073a" stroke="#ff073a" r="3" cursor="pointer" cx="51.60714285714285" cy="135.94852635948527"></circle><circle fill="#ff073a" stroke="#ff073a" r="3" cursor="pointer" cx="62.14285714285714" cy="135.7409713574097"></circle><circle fill="#ff073a" stroke="#ff073a" r="3" cursor="pointer" cx="72.67857142857143" cy="135.7409713574097"></circle><circle fill="#ff073a" stroke="#ff073a" r="3" cursor="pointer" cx="83.21428571428571" cy="135.7409713574097"></circle><circle fill="#ff073a" stroke="#ff073a" r="3" cursor="pointer" cx="93.75" cy="135.7409713574097"></circle><circle fill="#ff073a" stroke="#ff073a" r="3" cursor="pointer" cx="104.28571428571428" cy="135.7409713574097"></circle><circle fill="#ff073a" stroke="#ff073a" r="3" cursor="pointer" cx="114.82142857142858" cy="135.7409713574097"></circle><circle fill="#ff073a" stroke="#ff073a" r="3" cursor="pointer" cx="125.35714285714286" cy="135.7409713574097"></circle><circle fill="#ff073a" stroke="#ff073a" r="3" cursor="pointer" cx="135.89285714285714" cy="135.7409713574097"></circle><circle fill="#ff073a" stroke="#ff073a" r="3" cursor="pointer" cx="146.42857142857142" cy="135.7409713574097"></circle><circle fill="#ff073a" stroke="#ff073a" r="3" cursor="pointer" cx="156.96428571428572" cy="135.7409713574097"></circle><circle fill="#ff073a" stroke="#ff073a" r="3" cursor="pointer" cx="167.5" cy="135.7409713574097"></circle><circle fill="#ff073a" stroke="#ff073a" r="3" cursor="pointer" cx="178.03571428571428" cy="135.7409713574097"></circle><circle fill="#ff073a" stroke="#ff073a" r="3" cursor="pointer" cx="188.57142857142856" cy="135.7409713574097"></circle><circle fill="#ff073a" stroke="#ff073a" r="3" cursor="pointer" cx="199.10714285714283" cy="135.7409713574097"></circle><circle fill="#ff073a" stroke="#ff073a" r="3" cursor="pointer" cx="209.64285714285717" cy="135.7409713574097"></circle><circle fill="#ff073a" stroke="#ff073a" r="3" cursor="pointer" cx="220.17857142857144" cy="135.7409713574097"></circle><circle fill="#ff073a" stroke="#ff073a" r="3" cursor="pointer" cx="230.71428571428572" cy="135.7409713574097"></circle><circle fill="#ff073a" stroke="#ff073a" r="3" cursor="pointer" cx="241.25" cy="135.7409713574097"></circle><circle fill="#ff073a" stroke="#ff073a" r="3" cursor="pointer" cx="251.78571428571428" cy="135.7409713574097"></circle><circle fill="#ff073a" stroke="#ff073a" r="3" cursor="pointer" cx="262.32142857142856" cy="135.7409713574097"></circle><circle fill="#ff073a" stroke="#ff073a" r="3" cursor="pointer" cx="272.85714285714283" cy="135.7409713574097"></circle><circle fill="#ff073a" stroke="#ff073a" r="3" cursor="pointer" cx="283.39285714285717" cy="135.7409713574097"></circle><circle fill="#ff073a" stroke="#ff073a" r="3" cursor="pointer" cx="293.92857142857144" cy="135.7409713574097"></circle><circle fill="#ff073a" stroke="#ff073a" r="3" cursor="pointer" cx="304.4642857142857" cy="135.7409713574097"></circle><circle fill="#ff073a" stroke="#ff073a" r="3" cursor="pointer" cx="315" cy="135.7409713574097"></circle><circle fill="#ff073a" stroke="#ff073a" r="3" cursor="pointer" cx="325.53571428571433" cy="135.7409713574097"></circle><circle fill="#ff073a" stroke="#ff073a" r="3" cursor="pointer" cx="336.07142857142856" cy="135.7409713574097"></circle><circle fill="#ff073a" stroke="#ff073a" r="3" cursor="pointer" cx="346.6071428571429" cy="135.7409713574097"></circle><circle fill="#ff073a" stroke="#ff073a" r="3" cursor="pointer" cx="357.1428571428571" cy="135.32586135325863"></circle><circle fill="#ff073a" stroke="#ff073a" r="3" cursor="pointer" cx="367.67857142857144" cy="135.11830635118307"></circle><circle fill="#ff073a" stroke="#ff073a" r="3" cursor="pointer" cx="378.21428571428567" cy="130.55209630552096"></circle><circle fill="#ff073a" stroke="#ff073a" r="3" cursor="pointer" cx="388.75" cy="130.13698630136986"></circle><circle fill="#ff073a" stroke="#ff073a" r="3" cursor="pointer" cx="399.28571428571433" cy="129.92943129929432"></circle><circle fill="#ff073a" stroke="#ff073a" r="3" cursor="pointer" cx="409.82142857142856" cy="129.30676629306765"></circle><circle fill="#ff073a" stroke="#ff073a" r="3" cursor="pointer" cx="420.3571428571429" cy="128.2689912826899"></circle><circle fill="#ff073a" stroke="#ff073a" r="3" cursor="pointer" cx="430.8928571428571" cy="126.40099626400996"></circle><circle fill="#ff073a" stroke="#ff073a" r="3" cursor="pointer" cx="441.42857142857144" cy="123.28767123287672"></circle><circle fill="#ff073a" stroke="#ff073a" r="3" cursor="pointer" cx="451.96428571428567" cy="121.83478621834786"></circle><circle fill="#ff073a" stroke="#ff073a" r="3" cursor="pointer" cx="462.5" cy="119.34412619344127"></circle><circle fill="#ff073a" stroke="#ff073a" r="3" cursor="pointer" cx="473.03571428571433" cy="117.4761311747613"></circle><circle fill="#ff073a" stroke="#ff073a" r="3" cursor="pointer" cx="483.57142857142856" cy="114.15525114155253"></circle><circle fill="#ff073a" stroke="#ff073a" r="3" cursor="pointer" cx="494.1071428571429" cy="112.90992112909922"></circle><circle fill="#ff073a" stroke="#ff073a" r="3" cursor="pointer" cx="504.6428571428571" cy="110.00415110004151"></circle><circle fill="#ff073a" stroke="#ff073a" r="3" cursor="pointer" cx="515.1785714285714" cy="106.06060606060608"></circle><circle fill="#ff073a" stroke="#ff073a" r="3" cursor="pointer" cx="525.7142857142857" cy="100.87173100871732"></circle><circle fill="#ff073a" stroke="#ff073a" r="3" cursor="pointer" cx="536.25" cy="95.06019095060192"></circle><circle fill="#ff073a" stroke="#ff073a" r="3" cursor="pointer" cx="546.7857142857143" cy="82.81444582814447"></circle><circle fill="#ff073a" stroke="#ff073a" r="3" cursor="pointer" cx="557.3214285714286" cy="67.04026567040268"></circle><circle fill="#ff073a" stroke="#ff073a" r="3" cursor="pointer" cx="567.8571428571429" cy="52.718970527189704"></circle><circle fill="#ff073a" stroke="#ff073a" r="3" cursor="pointer" cx="578.3928571428571" cy="31.54836031548361"></circle><circle fill="#ff073a" stroke="#ff073a" r="3" cursor="pointer" cx="588.9285714285714" cy="17.849730178497307"></circle><circle fill="#ff073a" stroke="#ff073a" r="3" cursor="pointer" cx="599.4642857142857" cy="0"></circle></svg>